HIERARCHY
ROOT Hips
{
	OFFSET 0.00000 0.00000 0.00000
	CHANNELS 6 Xposition Yposition Zposition Zrotation Yrotation Xrotation 
	JOINT LHipJoint
	{
		OFFSET 0 0 0
		CHANNELS 3 Zrotation Yrotation Xrotation
		JOINT LeftHip
		{
			OFFSET 1.56857 -1.73443 1.15205
			CHANNELS 3 Zrotation Yrotation Xrotation
			JOINT LeftKnee
			{
				OFFSET 2.39362 -6.57643 0.00000
				CHANNELS 3 Zrotation Yrotation Xrotation
				JOINT LeftAnkle
				{
					OFFSET 2.50952 -6.89485 0.00000
					CHANNELS 3 Zrotation Yrotation Xrotation
					JOINT LeftToe
					{
						OFFSET 0.17171 -0.47178 1.88682
						CHANNELS 3 Zrotation Yrotation Xrotation
						End Site
						{
							OFFSET 0.00000 -0.00000 0.98146
						}
					}
				}
			}
		}
	}
	JOINT RHipJoint
	{
		OFFSET 0 0 0
		CHANNELS 3 Zrotation Yrotation Xrotation
		JOINT RightHip
		{
			OFFSET -1.28153 -1.73443 1.15205
			CHANNELS 3 Zrotation Yrotation Xrotation
			JOINT RightKnee
			{
				OFFSET -2.26861 -6.23296 0.00000
				CHANNELS 3 Zrotation Yrotation Xrotation
				JOINT RightAnkle
				{
					OFFSET -2.54143 -6.98254 0.00000
					CHANNELS 3 Zrotation Yrotation Xrotation
					JOINT RightToe
					{
						OFFSET -0.23309 -0.64041 1.93119
						CHANNELS 3 Zrotation Yrotation Xrotation
						End Site
						{
							OFFSET -0.00000 -0.00000 1.02013
						}
					}
				}
			}
		}
	}
	JOINT lowerback
	{
		OFFSET 0 0 0
		CHANNELS 3 Zrotation Yrotation Xrotation
		JOINT Chest
		{
			OFFSET -0.07096 2.10460 -0.27878
			CHANNELS 3 Zrotation Yrotation Xrotation
			JOINT Chest2
			{
				OFFSET -0.00826 2.13662 -0.08279
				CHANNELS 3 Zrotation Yrotation Xrotation
				JOINT lowerneck
				{
					OFFSET 0 0 0
					CHANNELS 3 Zrotation Yrotation Xrotation
					JOINT Neck
					{
						OFFSET 0.03239 1.77799 0.24435
						CHANNELS 3 Zrotation Yrotation Xrotation
						JOINT Head
						{
							OFFSET 0.01026 1.74194 -0.49664
							CHANNELS 3 Zrotation Yrotation Xrotation
							End Site
							{
								OFFSET 0.00170 1.83057 -0.19653
							}
						}
					}
				}
				JOINT LeftCollar
				{
					OFFSET 0 0 0
					CHANNELS 3 Zrotation Yrotation Xrotation
					JOINT LeftShoulder
					{
						OFFSET 3.19178 1.35907 -0.31412
CHANNELS 3 Zrotation Xrotation Yrotation
						JOINT LeftElbow
						{
OFFSET 0 -4.852470 -0.000000
CHANNELS 3 Zrotation Xrotation Yrotation
							JOINT LeftWrist
							{
OFFSET 0 -3.555840 0.000000
CHANNELS 3 Zrotation Xrotation Yrotation
								JOINT lhand
								{
									OFFSET 0 0 0
CHANNELS 3 Zrotation Xrotation Yrotation
									JOINT LFingers
									{
OFFSET 0 -0.693200 0.000000
CHANNELS 3 Zrotation Xrotation Yrotation
										End Site
										{
OFFSET 0 -0.558880 0.000000
										}
									}
								}
								JOINT LThumb
								{
OFFSET 0 0.000000 0.000000
CHANNELS 3 Zrotation Xrotation Yrotation
									End Site
									{
OFFSET 0 -0.567410 0.567410
									}
								}
							}
						}
					}
				}
				JOINT RightCollar
				{
					OFFSET 0 0 0
					CHANNELS 3 Zrotation Yrotation Xrotation
					JOINT RightShoulder
					{
						OFFSET -3.28999 1.24191 -0.26899
CHANNELS 3 Zrotation Xrotation Yrotation
						JOINT RightElbow
						{
OFFSET 0 -4.644620 0.000000
CHANNELS 3 Zrotation Xrotation Yrotation
							JOINT RightWrist
							{
OFFSET 0 -3.407030 0.000000
CHANNELS 3 Zrotation Xrotation Yrotation
								JOINT rhand
								{
									OFFSET 0 0 0
CHANNELS 3 Zrotation Xrotation Yrotation
									JOINT RFingers
									{
OFFSET 0 -0.619580 0.000000
CHANNELS 3 Zrotation Xrotation Yrotation
										End Site
										{
OFFSET 0 -0.499520 0.000000
										}
									}
								}
								JOINT RThumb
								{
OFFSET 0 0.000000 0.000000
CHANNELS 3 Zrotation Xrotation Yrotation
									End Site
									{
OFFSET 0 -0.507150 0.507150
									}
								}
							}
						}
					}
				}
			}
		}
	}
}
MOTION
Frames: 5
Frame Time: 0.008333333333333333
-21.646230 15.179275 -1.044007 114.972967 76.108952 134.513669 0.000000 0.000000 0.000000 -28.308014 5.837578 15.414702 0.010303 0.651301 1.789683 0.721217 -16.186663 -17.713537 0.672595 -5.242939 -14.603177 0.000000 0.000000 0.000000 4.126158 1.593781 -68.472744 -15.709845 -19.552894 77.366067 -1.497941 -6.190671 -26.081179 -0.141809 -2.376519 6.549246 -8.727354 -1.756954 19.183915 -1.636093 -3.160496 8.193292 3.794579 -1.450806 -1.410043 -0.781088 1.020266 -28.885767 -1.892439 2.143924 15.012312 -0.203352 0.721102 9.414241 0.000000 0.000000 0.000000 10.434037 -19.351601 -65.029437 94.147002 -59.932980 63.590569 42.405489 -28.815928 27.063706 0.000000 0.000000 0.000000 -7.125000 0.000000 0.000000 7.064165 -4.467363 7.649849 0.000000 0.000000 0.000000 -39.807042 48.959652 71.998200 -49.927755 -52.965253 -26.116744 -30.071536 -10.284566 24.039780 0.000000 0.000000 0.000000 7.125000 0.000000 0.000000 -0.847860 57.247528 0.259811
-21.430959 15.165978 -1.048578 117.660825 76.016326 137.215930 0.000000 0.000000 0.000000 -27.876069 5.034718 16.207659 0.015889 0.810578 2.227664 0.656426 -15.592086 -16.953944 0.649647 -5.155789 -14.353486 0.000000 0.000000 0.000000 5.195024 0.695756 -67.629467 -15.734457 -19.558054 77.439644 -1.692082 -7.097094 -27.992968 -0.042047 -1.014735 2.793232 -8.197622 -1.976200 19.299252 -1.193415 -3.351887 8.213902 4.010213 -1.544528 -1.435752 -0.761477 1.080979 -29.628679 -2.362191 2.352573 15.436873 -0.337133 0.749125 9.695943 0.000000 0.000000 0.000000 11.000462 -19.390323 -65.653821 95.758958 -59.871966 64.985197 43.009148 -28.819911 27.224319 0.000000 0.000000 0.000000 -7.125000 0.000000 0.000000 7.362483 -4.891098 8.028095 0.000000 0.000000 0.000000 -41.981888 49.722456 73.360757 -50.809596 -53.315407 -26.822501 -28.236163 -10.876486 22.909910 0.000000 0.000000 0.000000 7.125000 0.000000 0.000000 0.871533 55.610094 -0.208851
-21.209598 15.151692 -1.053736 119.475417 76.088435 139.244389 0.000000 0.000000 0.000000 -27.565172 4.252868 16.701382 0.024932 1.011406 2.780241 0.620560 -14.539628 -16.230740 0.771240 -5.594152 -15.614680 0.000000 0.000000 0.000000 6.206059 0.135304 -66.821950 -15.722321 -19.555504 77.403402 -1.806341 -8.484425 -29.650550 -0.103692 1.368875 -3.775806 -7.702025 -2.097929 19.122187 -0.782694 -3.411248 8.190687 4.173709 -1.579967 -1.375078 -0.829541 1.109945 -30.161960 -2.666409 2.512645 15.730780 -0.407264 0.771463 9.894602 0.000000 0.000000 0.000000 11.576114 -19.480526 -66.240774 96.891512 -59.818540 65.964576 43.293590 -28.527805 27.206920 0.000000 0.000000 0.000000 -7.125000 0.000000 0.000000 7.526312 -4.983458 8.220284 0.000000 0.000000 0.000000 -43.653579 50.411583 74.025830 -51.324719 -53.515684 -27.235818 -26.487338 -11.271056 21.083642 0.000000 0.000000 0.000000 7.125000 0.000000 0.000000 2.247515 53.278842 -0.431038
-20.978864 15.137751 -1.063369 120.268861 76.171238 140.381222 0.000000 0.000000 0.000000 -27.501947 3.588745 16.863252 0.043116 1.320197 3.630550 0.581917 -13.413493 -15.444790 0.869594 -5.945636 -16.626766 0.000000 0.000000 0.000000 6.888317 -0.233342 -65.984231 -15.682985 -19.547192 77.285863 -1.898288 -8.821515 -30.453039 -0.259111 3.209862 -8.869130 -7.318005 -2.156431 18.728293 -0.465283 -3.402342 8.137067 4.277464 -1.586558 -1.241441 -0.870163 1.130133 -30.445749 -2.930746 2.632444 15.866594 -0.475177 0.785927 9.996092 0.000000 0.000000 0.000000 12.130555 -19.299654 -66.771544 98.024501 -59.752989 66.943600 43.137886 -28.038784 27.217065 0.000000 0.000000 0.000000 -7.125000 0.000000 0.000000 7.436636 -4.933455 8.115026 0.000000 0.000000 0.000000 -44.795445 50.946214 74.064419 -51.493865 -53.580565 -27.371748 -24.907649 -11.016220 19.442567 0.000000 0.000000 0.000000 7.125000 0.000000 0.000000 3.445708 51.218785 -0.512697
-20.741723 15.129251 -1.075467 120.422002 76.121872 140.872162 0.000000 0.000000 0.000000 -27.687975 2.993661 16.797940 0.078484 1.779119 4.896362 0.521967 -12.451786 -14.520806 0.903519 -6.057066 -16.950259 0.000000 0.000000 0.000000 7.122459 -0.584274 -64.974498 -15.622923 -19.534324 77.106235 -2.066580 -7.733479 -30.831795 -0.333292 3.688655 -10.204551 -7.079196 -2.185712 18.346330 -0.242433 -3.385659 8.065719 4.360970 -1.588306 -1.128286 -0.793747 1.151237 -30.504359 -3.252250 2.710057 15.880460 -0.589892 0.785039 10.019626 0.000000 0.000000 0.000000 12.622465 -18.757426 -67.288428 99.259668 -59.672043 68.010234 42.603297 -27.484296 27.379232 0.000000 0.000000 0.000000 -7.125000 0.000000 0.000000 7.096505 -4.910939 7.735460 0.000000 0.000000 0.000000 -45.454502 51.258922 73.688977 -51.451706 -53.564501 -27.337831 -23.757116 -10.121536 18.528148 0.000000 0.000000 0.000000 7.125000 0.000000 0.000000 4.369019 50.041183 -0.542682
